<svg xmlns="http://www.w3.org/2000/svg" viewBox="0 0 64 64" role="img" aria-label="toikhana.kz">
  <rect width="64" height="64" rx="14" fill="#F7F1E7"/>
  <g transform="translate(8,3)" fill="none" stroke-linecap="round">
    <!-- dome / shanyrak silhouette -->
    <path d="M11 55 V27 C11 15 16.5 7 24 7 C31.5 7 37 15 37 27 V55" stroke="#15463F" stroke-width="2.6"/>
    <!-- subtle scroll at the crown -->
    <path d="M27.5 8.4 C31 7 34 8.8 33.6 12.4" stroke="#15463F" stroke-width="2.2"/>
    <!-- medallion -->
    <circle cx="24" cy="34" r="11" stroke="#15463F" stroke-width="2"/>
    <!-- gold cross -->
    <path d="M16.2 26.2 L31.8 41.8 M31.8 26.2 L16.2 41.8" stroke="#C8A45A" stroke-width="3.1"/>
    <!-- four petals between the cross arms -->
    <path d="M24 24.6 C25.7 26 25.7 28.6 24 30 C22.3 28.6 22.3 26 24 24.6 Z" fill="#15463F" stroke="none"/>
    <path d="M24 38 C25.7 39.4 25.7 42 24 43.4 C22.3 42 22.3 39.4 24 38 Z" fill="#15463F" stroke="none"/>
    <path d="M15.2 34 C16.6 32.3 19.2 32.3 20.6 34 C19.2 35.7 16.6 35.7 15.2 34 Z" fill="#15463F" stroke="none"/>
    <path d="M27.4 34 C28.8 32.3 31.4 32.3 32.8 34 C31.4 35.7 28.8 35.7 27.4 34 Z" fill="#15463F" stroke="none"/>
  </g>
</svg>
